<svg xmlns="http://www.w3.org/2000/svg" viewBox="0 0 512 512">
  <defs>
    <linearGradient id="g" x1="0%" y1="0%" x2="100%" y2="100%">
      <stop offset="0%" stop-color="#00c9a7"/>
      <stop offset="100%" stop-color="#00a1d8"/>
    </linearGradient>
  </defs>
  <rect width="512" height="512" rx="115" fill="url(#g)"/>
  <g fill="white">
    <circle cx="256" cy="148" r="28"/>
    <rect x="244" y="174" width="24" height="64" rx="4"/>
    <rect x="148" y="238" width="216" height="26" rx="13"/>
    <path d="M168 264 Q155 324 124 346 L212 346 Q181 324 168 264Z"/>
    <rect x="118" y="346" width="94" height="20" rx="10"/>
    <path d="M344 264 Q357 324 388 346 L300 346 Q331 324 344 264Z"/>
    <rect x="300" y="346" width="94" height="20" rx="10"/>
    <polyline points="130,410 185,388 240,398 295,372 350,378 390,356" stroke="white" stroke-width="14" stroke-linecap="round" stroke-linejoin="round" fill="none" opacity="0.75"/>
  </g>
</svg>
